<svg xmlns="http://www.w3.org/2000/svg" xmlns:xlink="http://www.w3.org/1999/xlink" width="500" zoomAndPan="magnify" viewBox="0 0 375 374.999991" height="500" preserveAspectRatio="xMidYMid meet" version="1.0"><defs><g/><clipPath id="id1"><path d="M 46.542969 15.375 L 333.792969 15.375 L 333.792969 302.625 L 46.542969 302.625 Z M 46.542969 15.375 " clip-rule="nonzero"/></clipPath></defs><path fill="#ff1616" d="M 190.167969 96.742188 C 155.738281 96.742188 127.847656 124.632812 127.847656 159.0625 C 127.847656 193.496094 155.738281 221.320312 190.167969 221.320312 C 224.601562 221.320312 252.492188 193.429688 252.492188 159.0625 C 252.492188 124.632812 224.601562 96.742188 190.167969 96.742188 Z M 190.167969 186.890625 C 174.78125 186.890625 162.277344 174.386719 162.277344 159 C 162.277344 143.609375 174.78125 131.109375 190.167969 131.109375 C 205.558594 131.109375 218.0625 143.609375 218.0625 159 C 218.0625 174.386719 205.558594 186.890625 190.167969 186.890625 Z M 190.167969 186.890625 " fill-opacity="1" fill-rule="nonzero"/><g clip-path="url(#id1)"><path fill="#ff1616" d="M 190.167969 15.375 C 110.855469 15.375 46.542969 79.683594 46.542969 159 C 46.542969 238.3125 110.855469 302.625 190.167969 302.625 C 269.484375 302.625 333.792969 238.3125 333.792969 159 C 333.792969 79.683594 269.484375 15.375 190.167969 15.375 Z M 190.167969 237.738281 C 146.699219 237.738281 111.433594 202.472656 111.433594 159 C 111.433594 115.527344 146.699219 80.261719 190.167969 80.261719 C 233.640625 80.261719 268.90625 115.527344 268.90625 159 C 268.90625 202.472656 233.640625 237.738281 190.167969 237.738281 Z M 190.167969 237.738281 " fill-opacity="1" fill-rule="nonzero"/></g></svg>
